<svg id="Facebook" data-name="Facebook" xmlns="http://www.w3.org/2000/svg" width="71" height="50" viewBox="0 0 22.993 42.528">
  <path id="Caminho_17" data-name="Caminho 17" d="M44.2.009,38.689,0c-6.2,0-10.2,4.108-10.2,10.466v4.826H22.944a.867.867,0,0,0-.867.868v6.992a.867.867,0,0,0,.867.867h5.545V41.661a.867.867,0,0,0,.867.867h7.235a.867.867,0,0,0,.867-.867V24.018h6.483a.867.867,0,0,0,.867-.867l0-6.992a.868.868,0,0,0-.868-.868H37.458V11.2c0-1.966.469-2.964,3.03-2.964H44.2a.867.867,0,0,0,.867-.867V.876A.867.867,0,0,0,44.2.009Z" transform="translate(-22.077)" fill="#fff"/>
</svg>
