<svg xmlns="http://www.w3.org/2000/svg" xmlns:xlink="http://www.w3.org/1999/xlink" width="61" height="56" viewBox="0 0 61 56">
  <defs>
    <clipPath id="clip-path">
      <rect id="Retângulo_5" data-name="Retângulo 5" width="61" height="56" transform="translate(140 1379)" fill="#fff" stroke="#707070" stroke-width="1"/>
    </clipPath>
  </defs>
  <g id="github" transform="translate(-140 -1379)" clip-path="url(#clip-path)">
    <g id="github-2" data-name="github" transform="translate(142.717 1379)">
      <path id="Caminho_10" data-name="Caminho 10" d="M8.335,0h38.9a8.335,8.335,0,0,1,8.335,8.335v38.9a8.335,8.335,0,0,1-8.335,8.335H8.335A8.335,8.335,0,0,1,0,47.231V8.335A8.335,8.335,0,0,1,8.335,0Z" fill="none"/>
      <path id="Caminho_4" data-name="Caminho 4" d="M36.357,54.155c1.519,0,1.3,1.845,1.3,1.845H17.907s-.217-1.845,1.3-1.845c1.411,0,1.736-.651,1.736-1.3l-.109-5.426c-7.705,1.736-9.333-3.039-9.333-3.039-1.3-3.256-3.039-4.016-3.039-4.016-2.6-1.736.109-1.736.109-1.736a6.063,6.063,0,0,1,4.341,2.822c2.388,4.233,6.4,3.039,8.031,2.388a6.223,6.223,0,0,1,1.736-3.8C16.5,39.4,10.093,37.008,10.093,26.372a11,11,0,0,1,2.822-7.488c-.326-.651-1.194-3.473.326-7.271,0,0,2.279-.76,7.6,2.822a25.184,25.184,0,0,1,13.891,0c5.318-3.581,7.6-2.822,7.6-2.822,1.519,3.8.651,6.62.326,7.271a11,11,0,0,1,2.822,7.488c0,10.636-6.512,13.023-12.7,13.674,1.085.868,1.953,2.6,1.953,5.209l-.109,7.6C34.62,53.5,34.946,54.155,36.357,54.155Z" fill="#fff"/>
    </g>
  </g>
</svg>
